<?xml version="1.0" encoding="utf-8"?>
<!-- Generator: Adobe Illustrator 26.3.1, SVG Export Plug-In . SVG Version: 6.00 Build 0)  -->
<svg version="1.1" id="Layer_1" xmlns="http://www.w3.org/2000/svg" xmlns:xlink="http://www.w3.org/1999/xlink" x="0px" y="0px"
	 viewBox="0 0 24 24" style="enable-background:new 0 0 24 24;" xml:space="preserve">
<style type="text/css">
	.st0{fill:#4F86C6;}
	.st1{fill:#FFFFFF;}
	.st2{fill:#EDB155;}
	.st3{fill:#79C799;}
</style>
<path class="st0" d="M19.91,24H4.09C1.83,24,0,22.17,0,19.91L0,4.09C0,1.83,1.83,0,4.09,0l15.82,0C22.17,0,24,1.83,24,4.09v15.82
	C24,22.17,22.17,24,19.91,24z"/>
<polygon class="st1" points="11.99,2.1 1.46,20.3 10.13,20.3 8.64,17.71 5.95,17.74 11.98,7.3 19.47,20.28 22.54,20.3 "/>
<polygon class="st2" points="10.73,14.2 9.24,16.74 11.31,20.25 14.21,20.23 "/>
<polygon class="st3" points="12.8,10.59 11.28,13.17 15.47,20.3 18.4,20.28 "/>
</svg>
